<svg
  width="24"
  height="24"
  viewBox="0 0 24 24"
  fill="#000000"
  xmlns="http://www.w3.org/2000/svg"
>
  <path
    fill-rule="evenodd"
    clip-rule="evenodd"
    d="M16.7784 11.5238C13.887 11.5238 11.5403 13.8705 11.5403 16.7619C11.5403 19.6533 13.887 22 16.7784 22C19.6699 22 22.0165 19.6533 22.0165 16.7619C22.0165 13.8705 19.6699 11.5238 16.7784 11.5238ZM16.4013 17.1286L18.1299 18.8571C18.3394 19.0667 18.6642 19.0667 18.8632 18.8676C19.0727 18.6581 19.0727 18.3333 18.8632 18.1238L17.2918 16.5524V14.1533C17.2918 13.86 17.0613 13.6295 16.768 13.6295C16.4746 13.6295 16.2442 13.86 16.2442 14.1533V16.7619C16.2442 16.8981 16.307 17.0343 16.4013 17.1286Z"
  />
  <path
    fill-rule="evenodd"
    clip-rule="evenodd"
    d="M19 2H14.82C14.4 0.84 13.3 0 12 0C10.7 0 9.6 0.84 9.18 2H5C3.9 2 3 2.9 3 4V20C3 21.1 3.9 22 5 22H12.6471C11.8196 21.4302 11.4117 21.0338 10.7041 20H6C5.45 20 5 19.55 5 19V5C5 4.45 5.45 4 6 4H7V5C7 6.1 7.9 7 9 7H15C16.1 7 17 6.1 17 5V4H18C18.55 4 19 4.45 19 5V10.5313C19.8816 10.7817 20.4889 11.2044 21 11.7638V4C21 2.9 20.1 2 19 2ZM13 3C13 2.45 12.55 2 12 2C11.45 2 11 2.45 11 3C11 3.55 11.45 4 12 4C12.55 4 13 3.55 13 3Z"
  />
</svg>
