<svg width="512" height="512" viewBox="0 0 512 512" fill="none" xmlns="http://www.w3.org/2000/svg">
<rect width="512" height="512" rx="256" fill="#FCFCFC"/>
<path d="M200.382 144.748C167.657 144.748 139.996 156.436 116.622 179.421C93.6361 202.406 82.3383 230.067 82.3383 262.792V344.994C82.3383 350.448 83.8966 354.733 87.7924 358.239C91.2986 362.135 95.584 363.694 101.038 363.694C106.103 363.694 110.388 362.135 113.894 358.239C117.79 354.733 119.738 350.448 119.738 344.994V262.792C119.738 240.585 127.53 221.496 143.113 205.913C159.086 189.94 178.176 182.148 200.382 182.148C205.446 182.148 209.732 180.2 213.628 176.694C217.134 172.798 219.082 168.513 219.082 163.448C219.082 158.384 217.134 153.709 213.628 150.202C209.732 146.696 205.446 144.748 200.382 144.748Z" fill="#0C151D"/>
<path d="M347.358 365.252C373.07 365.252 395.666 357.46 415.535 341.098C419.82 337.981 421.768 333.696 422.547 328.631C422.937 323.177 421.768 318.892 418.262 314.606C415.145 310.71 410.86 308.373 405.795 307.983C400.731 307.594 396.056 308.762 392.16 312.269C378.914 322.787 364.11 327.852 347.358 327.852C327.879 327.852 311.127 321.229 297.491 307.204C283.466 293.569 276.843 276.817 276.843 257.338C276.843 237.858 283.466 221.106 297.491 207.081C311.127 193.446 327.879 186.434 347.358 186.434C363.331 186.434 377.745 191.498 390.602 201.238C403.068 210.977 411.249 223.444 415.535 238.638H347.358C342.293 238.638 337.618 240.585 334.112 244.092C330.606 247.598 328.658 252.273 328.658 257.338C328.658 262.402 330.606 267.077 334.112 270.583C337.618 274.09 342.293 276.037 347.358 276.037H436.962C442.026 276.037 446.312 274.09 449.818 270.583C453.714 267.077 455.662 262.402 455.662 257.338C455.662 227.34 444.753 202.017 423.716 180.979C402.679 159.942 377.356 149.034 347.358 149.034C317.36 149.034 292.037 159.942 271 180.979C249.962 202.017 239.443 227.34 239.443 257.338C239.443 287.335 249.962 312.658 271 333.696C292.037 354.733 317.36 365.252 347.358 365.252Z" fill="#0C151D"/>
</svg>
