<svg width="512" height="513" viewBox="0 0 512 513" fill="none" xmlns="http://www.w3.org/2000/svg">
<g clip-path="url(#clip0)">
<rect y="0.75" width="512" height="512" rx="256" fill="#0C151D"/>
<path d="M200.382 145.498C167.657 145.498 139.996 157.186 116.622 180.171C93.6361 203.156 82.3383 230.817 82.3383 263.542V345.744C82.3383 351.198 83.8966 355.483 87.7924 358.989C91.2986 362.885 95.584 364.444 101.038 364.444C106.103 364.444 110.388 362.885 113.894 358.989C117.79 355.483 119.738 351.198 119.738 345.744V263.542C119.738 241.335 127.53 222.246 143.113 206.663C159.086 190.69 178.176 182.898 200.382 182.898C205.446 182.898 209.732 180.95 213.628 177.444C217.134 173.548 219.082 169.263 219.082 164.198C219.082 159.134 217.134 154.459 213.628 150.952C209.732 147.446 205.446 145.498 200.382 145.498Z" fill="#FCFCFC"/>
<path d="M347.358 366.002C373.07 366.002 395.666 358.21 415.535 341.848C419.82 338.731 421.768 334.446 422.547 329.381C422.937 323.927 421.768 319.642 418.262 315.356C415.145 311.46 410.86 309.123 405.795 308.733C400.731 308.344 396.056 309.512 392.16 313.019C378.914 323.537 364.11 328.602 347.358 328.602C327.879 328.602 311.127 321.979 297.491 307.954C283.466 294.319 276.843 277.567 276.843 258.088C276.843 238.608 283.466 221.856 297.491 207.831C311.127 194.196 327.879 187.184 347.358 187.184C363.331 187.184 377.745 192.248 390.602 201.988C403.068 211.727 411.249 224.194 415.535 239.388H347.358C342.293 239.388 337.618 241.335 334.112 244.842C330.606 248.348 328.658 253.023 328.658 258.088C328.658 263.152 330.606 267.827 334.112 271.333C337.618 274.84 342.293 276.787 347.358 276.787H436.962C442.026 276.787 446.312 274.84 449.818 271.333C453.714 267.827 455.662 263.152 455.662 258.088C455.662 228.09 444.753 202.767 423.716 181.729C402.679 160.692 377.356 149.784 347.358 149.784C317.36 149.784 292.037 160.692 271 181.729C249.962 202.767 239.443 228.09 239.443 258.088C239.443 288.085 249.962 313.408 271 334.446C292.037 355.483 317.36 366.002 347.358 366.002Z" fill="#FCFCFC"/>
</g>
<defs>
<clipPath id="clip0">
<rect width="512" height="512" fill="white" transform="translate(0 0.75)"/>
</clipPath>
</defs>
</svg>
