<svg width="320" height="181" viewBox="0 0 320 181" fill="none" xmlns="http://www.w3.org/2000/svg">
<rect width="320" height="180" transform="translate(0 0.25)" fill="#0C151D"/>
<path d="M63.8523 73.2649C57.7816 73.2649 52.6503 75.433 48.314 79.697C44.0501 83.961 41.9542 89.0923 41.9542 95.163V110.412C41.9542 111.424 42.2433 112.219 42.966 112.869C43.6164 113.592 44.4114 113.881 45.4232 113.881C46.3627 113.881 47.1577 113.592 47.8081 112.869C48.5308 112.219 48.8922 111.424 48.8922 110.412V95.163C48.8922 91.0436 50.3376 87.5023 53.2285 84.6114C56.1916 81.6483 59.7329 80.2029 63.8523 80.2029C64.7919 80.2029 65.5868 79.8416 66.3095 79.1911C66.96 78.4684 67.3213 77.6734 67.3213 76.7339C67.3213 75.7944 66.96 74.9271 66.3095 74.2767C65.5868 73.6262 64.7919 73.2649 63.8523 73.2649V73.2649Z" fill="#FCFCFC"/>
<path d="M91.1177 114.17C95.8876 114.17 100.079 112.725 103.765 109.69C104.56 109.112 104.922 108.317 105.066 107.377C105.138 106.365 104.922 105.57 104.271 104.775C103.693 104.053 102.898 103.619 101.958 103.547C101.019 103.474 100.152 103.691 99.4289 104.342C96.9717 106.293 94.2254 107.232 91.1177 107.232C87.5042 107.232 84.3965 106.004 81.867 103.402C79.2653 100.873 78.0367 97.765 78.0367 94.1514C78.0367 90.5379 79.2653 87.4302 81.867 84.8284C84.3965 82.299 87.5042 80.9981 91.1177 80.9981C94.0809 80.9981 96.7549 81.9376 99.1398 83.7444C101.453 85.5512 102.97 87.8638 103.765 90.6824H91.1177C90.1782 90.6824 89.311 91.0438 88.6605 91.6942C88.0101 92.3446 87.6487 93.2119 87.6487 94.1514C87.6487 95.0909 88.0101 95.9582 88.6605 96.6086C89.311 97.2591 90.1782 97.6204 91.1177 97.6204H107.74C108.68 97.6204 109.475 97.2591 110.125 96.6086C110.848 95.9582 111.209 95.0909 111.209 94.1514C111.209 88.5865 109.186 83.8889 105.283 79.9863C101.38 76.0836 96.6826 74.0601 91.1177 74.0601C85.5529 74.0601 80.8553 76.0836 76.9526 79.9863C73.05 83.8889 71.0987 88.5865 71.0987 94.1514C71.0987 99.7163 73.05 104.414 76.9526 108.317C80.8553 112.219 85.5529 114.17 91.1177 114.17V114.17Z" fill="#FCFCFC"/>
<path d="M141.281 75.5778C138.823 74.566 136.005 74.0601 132.897 74.0601C130.295 74.0601 127.91 74.4937 125.67 75.2887C123.357 76.1559 121.551 77.3845 120.177 78.9745C118.732 80.6367 118.082 82.6603 118.082 84.973C118.082 90.8269 122.707 94.6573 131.958 96.3918C135.499 97.1145 138.028 97.9095 139.546 98.9213C140.992 99.9331 141.786 101.162 141.786 102.607C141.786 104.197 140.991 105.426 139.474 106.293C137.956 107.232 135.86 107.666 133.114 107.666C131.018 107.666 129.067 107.305 127.26 106.582C125.381 105.859 124.008 104.92 123.141 103.908C122.273 103.041 121.334 102.607 120.394 102.607C119.599 102.607 118.732 102.968 117.865 103.619C116.853 104.342 116.419 105.281 116.419 106.437C116.419 107.305 116.708 108.1 117.359 108.678C118.949 110.34 121.262 111.641 124.152 112.653C127.043 113.665 130.079 114.17 133.403 114.17C136.655 114.17 139.474 113.665 141.786 112.653C144.099 111.641 145.906 110.196 147.135 108.389C148.291 106.582 148.941 104.558 148.941 102.318C148.941 99.3549 147.785 96.8977 145.617 95.0187C143.449 93.1396 139.691 91.6942 134.487 90.6101C131.885 90.1042 129.934 89.5983 128.633 89.0202C127.26 88.442 126.32 87.8638 125.887 87.2134C125.381 86.563 125.164 85.768 125.164 84.7562C125.164 83.4553 125.815 82.3712 127.26 81.6485C128.705 80.9258 130.512 80.4922 132.753 80.4922C134.632 80.4922 136.294 80.7813 137.667 81.2149C138.968 81.6485 140.269 82.4435 141.497 83.5276C142.509 84.4671 143.593 84.9007 144.894 84.9007C145.689 84.9007 146.34 84.7562 146.918 84.3225C147.713 83.6721 148.146 82.9494 148.146 82.0821C148.146 81.3594 147.785 80.5645 147.207 79.7695C145.761 78.035 143.738 76.5895 141.281 75.5778V75.5778Z" fill="#FCFCFC"/>
<path d="M190.712 77.5293C190.712 76.2284 189.917 75.2889 188.471 74.7107C187.893 74.4939 187.315 74.3494 186.737 74.3494C185.436 74.3494 184.496 75.0721 183.918 76.4452L172.283 102.68L159.057 76.373C158.334 75.0721 157.323 74.3494 156.022 74.3494C155.444 74.3494 155.01 74.4939 154.576 74.6384C153.926 74.9275 153.42 75.3612 153.059 75.8671C152.625 76.4452 152.48 77.0234 152.48 77.6016C152.48 78.1797 152.553 78.6856 152.842 79.1193L169.103 109.979L161.876 126.24C161.587 126.818 161.442 127.396 161.442 127.974C161.442 129.275 162.165 130.215 163.61 130.793C164.261 131.082 164.839 131.227 165.345 131.227C166.646 131.227 167.585 130.504 168.163 128.986L190.278 79.2638C190.567 78.6134 190.712 78.0352 190.712 77.5293Z" fill="#FCFCFC"/>
<path d="M230.538 114.098C231.549 114.098 232.417 113.737 233.139 113.014C233.862 112.292 234.151 111.424 234.151 110.412V91.8388C234.151 86.7798 232.344 82.4436 228.803 78.83C225.19 75.2164 220.781 73.4097 215.722 73.4097C210.591 73.4097 206.255 75.2164 202.641 78.83C199.027 82.4436 197.221 86.7798 197.221 91.8388V110.412C197.221 111.424 197.582 112.292 198.305 113.014C199.027 113.737 199.895 114.026 200.834 114.026C201.846 114.026 202.713 113.737 203.436 113.014C204.159 112.292 204.448 111.424 204.448 110.412V91.8388C204.448 88.8034 205.604 86.1294 207.772 83.9612C209.94 81.7208 212.614 80.6368 215.722 80.6368C218.83 80.6368 221.431 81.7208 223.672 83.9612C225.84 86.1294 226.924 88.8034 226.924 91.8388V110.485C226.924 111.424 227.285 112.292 228.008 113.014C228.731 113.737 229.598 114.098 230.538 114.098V114.098Z" fill="#FCFCFC"/>
<path d="M278.211 80.5645C274.452 76.2282 269.683 74.0601 264.045 74.0601C260.287 74.0601 256.891 74.9273 253.927 76.6618C250.892 78.3963 248.579 80.7813 246.917 83.8167C245.255 86.852 244.46 90.321 244.46 94.1514C244.46 97.9095 245.255 101.379 246.989 104.414C248.724 107.449 251.109 109.834 254.144 111.569C257.18 113.303 260.576 114.17 264.407 114.17C269.61 114.17 273.947 112.581 277.416 109.328C277.994 108.75 278.283 108.1 278.283 107.377C278.283 106.437 277.777 105.57 276.91 104.775C276.331 104.342 275.681 104.125 275.031 104.125C274.163 104.125 273.224 104.486 272.357 105.137C270.333 106.871 267.659 107.666 264.407 107.666C261.877 107.666 259.637 107.088 257.686 105.932C255.734 104.775 254.217 103.185 253.133 101.162C252.048 99.1381 251.543 96.7532 251.543 94.1514C251.543 90.1042 252.699 86.7798 255.012 84.3225C257.324 81.8653 260.287 80.5645 264.045 80.5645C265.852 80.5645 267.442 80.9258 268.888 81.504C270.333 82.0821 271.634 83.0217 272.863 84.3225C273.585 85.1898 274.525 85.6234 275.681 85.6234C276.259 85.6234 276.837 85.4789 277.343 85.1175C278.355 84.3948 278.933 83.5276 278.933 82.4435C278.933 81.7208 278.644 81.1426 278.211 80.5645V80.5645Z" fill="#FCFCFC"/>
</svg>
